<?xml version="1.0" standalone="no"?>
<!DOCTYPE svg PUBLIC "-//W3C//DTD SVG 20010904//EN"
 "http://www.w3.org/TR/2001/REC-SVG-20010904/DTD/svg10.dtd">
<svg version="1.0" xmlns="http://www.w3.org/2000/svg"
 width="694.000000pt" height="450.000000pt" viewBox="0 0 694.000000 450.000000"
 preserveAspectRatio="xMidYMid meet">

<g transform="translate(0.000000,450.000000) scale(0.100000,-0.100000)"
fill="#000000" stroke="none">
<path d="M5107 3260 c-61 -38 -107 -110 -107 -165 0 -47 19 -79 61 -100 36
-19 38 -42 3 -51 -24 -6 -26 -10 -20 -42 3 -20 12 -42 20 -50 13 -13 17 -11
35 19 12 19 23 39 25 44 4 12 6 10 31 -40 27 -54 62 -56 87 -5 17 33 39 47 81
49 9 1 17 -6 17 -14 0 -27 18 -16 25 15 8 35 41 58 58 41 8 -8 3 -29 -16 -76
-45 -108 -36 -113 48 -25 41 43 75 83 75 89 0 5 -9 26 -21 45 -19 32 -19 39
-7 96 15 72 9 87 -48 115 -30 15 -60 19 -136 20 -72 0 -98 3 -98 13 0 17 -25
15 -40 -3 -18 -22 -33 -19 -20 4 12 23 13 51 2 51 -4 0 -29 -13 -55 -30z m208
-292 c15 -22 14 -24 -14 -35 -32 -14 -191 -7 -191 8 0 8 36 19 125 36 28 6 53
11 57 12 4 0 14 -9 23 -21z"/>
<path d="M5162 2673 c-12 -2 -29 -17 -37 -33 -21 -41 -19 -44 13 -21 82 61 84
65 24 54z"/>
<path d="M5350 2522 c168 -132 199 -170 207 -259 13 -140 -35 -331 -118 -476
-29 -51 -59 -103 -67 -117 -16 -29 9 -3 316 325 124 132 246 261 270 287 l45
47 -15 53 c-8 29 -18 52 -22 51 -4 -1 -86 -88 -182 -193 -97 -104 -178 -190
-180 -190 -3 0 2 12 10 28 24 48 76 203 76 229 0 39 -29 91 -86 152 l-52 57
-109 17 c-59 9 -112 17 -118 17 -5 -1 6 -13 25 -28z"/>
<path d="M4220 2145 c-72 -39 -155 -62 -310 -85 -80 -13 -148 -26 -153 -30 -4
-3 -1 -20 7 -36 14 -28 109 -234 166 -360 l28 -62 -37 22 c-228 132 -562 343
-566 357 -10 31 -21 22 -42 -32 l-19 -52 -85 2 c-50 1 -108 -5 -144 -14 -118
-31 -160 -60 -325 -226 -85 -85 -184 -177 -218 -204 -51 -40 -102 -104 -102
-128 0 -3 58 14 130 36 l130 41 45 57 c112 143 198 219 261 233 48 11 118 -10
263 -76 137 -64 145 -74 61 -78 -31 -2 -29 -3 22 -16 87 -20 135 -48 142 -81
14 -66 36 -242 36 -293 l0 -55 -307 3 c-213 3 -388 -1 -568 -12 -355 -23 -765
-55 -850 -67 -59 -8 -72 -7 -81 6 -10 13 -16 14 -38 4 -76 -35 -4 -40 415 -29
1297 34 2290 87 2504 132 63 13 159 56 222 99 l48 33 -62 -71 c-35 -38 -68
-75 -76 -81 -7 -6 -635 -62 -1499 -133 l-1487 -123 -363 157 c-288 124 -362
160 -360 173 3 12 -1 15 -13 10 -9 -3 -21 -6 -26 -6 -5 0 -9 -18 -9 -40 0 -38
-2 -40 -20 -30 -19 10 -20 8 -20 -39 0 -41 4 -51 20 -56 19 -6 20 -15 20 -189
0 -169 1 -184 20 -201 15 -14 29 -16 62 -11 68 11 68 12 68 173 0 83 4 143 9
141 5 -1 144 -68 310 -148 l300 -145 1 -230 c0 -265 3 -275 71 -275 29 0 47 7
64 25 l25 24 0 230 0 230 33 5 c17 3 72 9 121 13 l90 8 11 57 c13 67 37 98 77
98 47 0 70 -33 66 -93 l-3 -52 45 3 c59 4 1100 85 1500 117 173 14 318 25 323
25 4 0 7 -16 7 -35 0 -44 26 -60 83 -51 53 9 67 21 67 62 0 40 -40 34 485 74
220 16 421 32 448 35 l47 6 0 -216 c0 -130 4 -224 10 -236 8 -15 21 -19 59
-19 80 0 81 2 81 253 l0 217 -34 47 c-18 27 -41 62 -49 79 -15 30 -22 32 -231
85 -119 30 -215 57 -214 61 2 4 53 61 113 125 156 168 150 154 68 147 -61 -6
-77 -12 -148 -59 -215 -142 -389 -230 -506 -259 l-27 -6 -4 133 c-5 150 -25
226 -83 313 -37 56 -159 148 -251 189 -28 12 -54 29 -57 38 -8 21 14 48 41 50
12 0 22 5 22 10 0 14 78 1 143 -23 30 -11 72 -36 92 -56 65 -60 85 -67 154
-48 63 18 84 40 56 60 -9 7 -72 45 -141 84 -68 40 -124 74 -124 77 0 2 17 34
37 72 l37 67 -27 47 c-15 26 -31 47 -35 47 -4 -1 -27 -12 -52 -25z m715 -1124
c61 -16 108 -30 105 -31 -11 -5 -305 -27 -309 -24 -7 6 71 84 84 84 5 0 60
-13 120 -29z"/>
<path d="M2971 2108 c-19 -5 -44 -16 -55 -25 -20 -14 -18 -15 23 -10 25 3 53
14 65 26 22 23 18 24 -33 9z"/>
<path d="M3433 2073 c-12 -30 67 -80 90 -56 4 3 -3 11 -16 17 -12 6 -23 22
-25 34 -4 26 -39 30 -49 5z"/>
<path d="M4987 1853 c-63 -123 -172 -174 -381 -175 -140 -1 -93 -17 59 -21
119 -2 211 23 305 84 61 39 140 106 140 119 0 4 -17 12 -37 19 -21 7 -43 15
-50 17 -7 3 -22 -15 -36 -43z"/>
<path d="M3020 1440 c0 -5 15 -10 34 -10 19 0 38 5 41 10 4 6 -10 10 -34 10
-23 0 -41 -4 -41 -10z"/>
<path d="M2535 634 c-41 -21 -99 -78 -142 -141 -20 -29 -53 -64 -74 -78 -30
-19 -39 -32 -39 -53 0 -33 -25 -72 -46 -72 -23 0 -28 -28 -10 -55 14 -21 24
-25 66 -25 69 0 109 37 146 133 22 58 42 87 105 153 86 92 101 120 73 141 -23
17 -42 16 -79 -3z"/>
<path d="M5718 513 c-11 -25 -25 -74 -31 -107 -9 -54 -8 -66 11 -108 15 -34
31 -52 59 -66 92 -47 237 -36 302 23 36 33 36 34 36 117 -1 68 -5 92 -25 133
l-25 50 -153 2 -153 3 -21 -47z"/>
</g>
</svg>
